<svg width="24" height="23" viewBox="0 0 24 23" fill="none" xmlns="http://www.w3.org/2000/svg">
<g clip-path="url(#clip0_69_773)">
<path d="M19.7999 7.96655H23.8022L19.3095 22.2802H15.3073L19.7999 7.96655Z" fill="#131313"/>
<path d="M18.9667 3.38157L18.8155 3.35775C17.7094 3.17458 17.1434 3.02803 16.9111 2.65435C16.6586 2.24402 16.7766 1.53695 17.1324 0.108153C17.1371 0.0927732 17.1362 0.0762218 17.1298 0.0614565C17.1233 0.0466912 17.1118 0.0346744 17.0973 0.0275538L17.0623 0.00923587C17.044 0.00180419 17.0235 0.00180419 17.0052 0.00923587C16.9867 0.0163433 16.9716 0.0300668 16.9628 0.0477035C16.3194 1.44353 15.9433 2.13595 15.4123 2.55543C14.8814 2.97491 14.2159 3.09947 12.9254 3.23869L12.778 3.25517C12.7611 3.25788 12.7458 3.26647 12.7347 3.27939C12.7236 3.29231 12.7175 3.30873 12.7175 3.3257C12.7175 3.34267 12.7236 3.35909 12.7347 3.37201C12.7458 3.38493 12.7611 3.39351 12.778 3.39622L12.9273 3.42187C14.0334 3.60505 14.6012 3.74976 14.8335 4.12528C15.086 4.53377 14.9681 5.24084 14.6104 6.67147C14.6069 6.68706 14.6086 6.70338 14.6152 6.71793C14.6219 6.73248 14.6331 6.74447 14.6473 6.75207L14.6805 6.77039C14.692 6.77286 14.704 6.77286 14.7155 6.77039C14.7228 6.77203 14.7303 6.77203 14.7376 6.77039C14.7471 6.76754 14.7559 6.76283 14.7635 6.75654C14.7711 6.75024 14.7773 6.74249 14.7819 6.73375C15.4253 5.33792 15.8013 4.64367 16.3304 4.22603C16.8595 3.80838 17.525 3.67649 18.8192 3.53727L18.9667 3.52078C18.9857 3.52078 19.004 3.51326 19.0175 3.49986C19.031 3.48646 19.0386 3.46829 19.0386 3.44934C19.0386 3.4304 19.031 3.41223 19.0175 3.39883C19.004 3.38543 18.9857 3.3779 18.9667 3.3779V3.38157Z" fill="#131313"/>
<path d="M1.12693 17.6658C2.87274 13.1065 7.31933 8.03056 7.31933 8.03056C7.32139 8.02269 7.32154 8.01445 7.31977 8.00651C7.318 7.99857 7.31435 7.99116 7.30912 7.9849C7.3039 7.97864 7.29726 7.9737 7.28973 7.97049C7.28221 7.96728 7.27403 7.9659 7.26586 7.96645H3.27463C3.26404 7.96562 3.25349 7.96844 3.24475 7.97445C3.23602 7.98046 3.22964 7.98928 3.2267 7.99942L0.472475 16.9752C0.10377 18.3949 0.0890219 19.798 0.640236 20.6626C0.645321 20.6706 0.652407 20.6772 0.660806 20.6817C0.669205 20.6862 0.678631 20.6885 0.688167 20.6883C0.695425 20.6888 0.7027 20.6876 0.709397 20.6847C0.716094 20.6819 0.722023 20.6775 0.726698 20.672C0.731374 20.6665 0.734663 20.6599 0.736297 20.6529C0.737931 20.6458 0.737863 20.6385 0.736099 20.6315C0.52225 19.9409 0.736099 18.9572 1.1343 17.6731L1.12693 17.6658Z" fill="#131313"/>
<path d="M12.3225 7.96655L9.98865 16.325C8.606 21.6555 6.8399 21.879 4.05065 21.879C2.84683 21.879 1.7868 21.716 1.29827 21.3844C1.2914 21.3838 1.28451 21.3853 1.27855 21.3888C1.27259 21.3922 1.26786 21.3975 1.26503 21.4037C1.26219 21.41 1.26138 21.4169 1.26271 21.4236C1.26404 21.4304 1.26745 21.4365 1.27246 21.4412C1.54161 21.7071 1.83821 21.9441 2.15735 22.1483C3.11783 22.7491 3.79809 22.9561 5.37062 23.0001C8.92309 22.9451 11.7916 22.3187 13.3697 17.5194L16.3691 7.96655H12.3225Z" fill="#131313"/>
</g>
<defs>
<clipPath id="clip0_69_773">
<rect width="23.5897" height="23" fill="white" transform="translate(0.205078)"/>
</clipPath>
</defs>
</svg>
