<svg id="圖層_1" data-name="圖層 1" xmlns="http://www.w3.org/2000/svg" viewBox="0 0 127.96 125.56"><defs><style>.cls-1{fill:#fff;}</style></defs><path class="cls-1" d="M106.29,43.49H128l-24.37,78.14H81.92Z"/><path class="cls-1" d="M101.77,18.46l-.82-.13c-6-1-9.07-1.8-10.33-3.84-1.37-2.24-.73-6.1,1.2-13.9a.37.37,0,0,0-.19-.44l-.19-.1a.41.41,0,0,0-.31,0,.43.43,0,0,0-.23.21c-3.49,7.62-5.53,11.4-8.41,13.69S76,16.92,69,17.68l-.8.09a.39.39,0,0,0,0,.77l.81.14c6,1,9.08,1.79,10.34,3.84,1.37,2.23.73,6.09-1.21,13.9a.4.4,0,0,0,.2.44l.18.1a.45.45,0,0,0,.19,0,.27.27,0,0,0,.12,0,.4.4,0,0,0,.24-.2c3.49-7.62,5.53-11.41,8.4-13.69s6.48-3,13.5-3.76l.8-.09a.39.39,0,0,0,0-.78Z"/><path class="cls-1" d="M5,96.44c9.47-24.89,33.59-52.6,33.59-52.6a.28.28,0,0,0-.29-.35H16.65a.25.25,0,0,0-.26.18l-14.94,49c-2,7.75-2.08,15.41.91,20.13a.3.3,0,0,0,.26.14h0a.25.25,0,0,0,.26-.31c-1.16-3.77,0-9.14,2.16-16.15Z"/><path class="cls-1" d="M65.73,43.49,53.07,89.12c-7.5,29.1-17.08,30.32-32.21,30.32-6.53,0-12.28-.89-14.93-2.7h0a.18.18,0,0,0-.14.31,29.31,29.31,0,0,0,4.8,3.86c5.21,3.28,8.9,4.41,17.43,4.65,19.27-.3,34.83-3.72,43.39-29.92L87.68,43.49Z"/></svg>