<svg width="244" height="257" viewBox="0 0 244 257" fill="none" xmlns="http://www.w3.org/2000/svg">
<path d="M224.418 122.36L218.989 121.501C179.267 114.898 158.942 109.615 150.6 96.1442C141.53 81.3526 145.767 55.8634 158.545 4.35674C158.715 3.80232 158.682 3.20566 158.451 2.67339C158.221 2.14112 157.808 1.70793 157.287 1.45124L156.029 0.790894C155.371 0.52299 154.634 0.52299 153.977 0.790894C153.313 1.04711 152.77 1.54183 152.454 2.17761C129.349 52.4956 115.843 77.4566 96.7759 92.5784C77.7091 107.7 53.8093 112.191 7.46623 117.209L2.16986 117.803C1.56437 117.901 1.01355 118.211 0.615969 118.676C0.218384 119.142 0 119.734 0 120.346C0 120.958 0.218384 121.549 0.615969 122.015C1.01355 122.481 1.56437 122.79 2.16986 122.888L7.53245 123.813C47.2551 130.416 67.646 135.633 75.9878 149.17C85.0578 163.895 80.8207 189.384 67.977 240.957C67.8498 241.519 67.9103 242.107 68.1494 242.632C68.3884 243.156 68.7929 243.589 69.3011 243.863L70.4928 244.523C70.9073 244.612 71.3362 244.612 71.7507 244.523C72.0121 244.582 72.2837 244.582 72.5452 244.523C72.8853 244.42 73.2012 244.251 73.4742 244.024C73.7472 243.797 73.9716 243.518 74.134 243.202C97.2394 192.884 110.745 167.857 129.746 152.802C148.746 137.746 172.646 132.991 219.122 127.973L224.418 127.378C225.103 127.378 225.76 127.107 226.244 126.624C226.728 126.141 227 125.486 227 124.803C227 124.12 226.728 123.465 226.244 122.982C225.76 122.499 225.103 122.228 224.418 122.228V122.36Z" fill="white"/>
<path d="M171.486 15.2521C172.014 15.038 172.605 15.0363 173.134 15.2452L174.362 15.8868L174.594 15.4445L174.362 15.8878L174.374 15.8927C174.787 16.0953 175.113 16.4371 175.295 16.8556C175.477 17.274 175.502 17.7431 175.368 18.1788L175.364 18.1915L175.361 18.2052C169.002 43.7444 164.757 62.8674 163.237 77.4464C161.765 91.5638 162.836 101.508 167.089 108.914L167.511 109.623L167.512 109.625C171.752 116.446 179.014 121.148 190.102 124.963C200.494 128.539 214.314 131.356 232.292 134.393L235.942 135.004H235.946L241.352 135.856L241.93 135.946V135.793C242.292 135.883 242.627 136.067 242.895 136.333C243.283 136.719 243.5 137.242 243.5 137.785C243.5 138.329 243.282 138.851 242.895 139.236C242.507 139.622 241.98 139.839 241.43 139.839H241.401L241.374 139.842L236.101 140.432C189.851 145.407 165.91 150.127 146.864 165.161C127.838 180.18 114.348 205.119 91.3633 254.984C91.2325 255.236 91.0522 255.461 90.832 255.644C90.6165 255.822 90.3668 255.955 90.0986 256.038C89.916 256.077 89.7271 256.078 89.5449 256.036L89.4375 256.012L89.3301 256.034C89.0065 256.104 88.6725 256.105 88.3477 256.044L87.2373 255.431L87.2324 255.428L87.083 255.34C86.743 255.12 86.4722 254.808 86.3037 254.44C86.113 254.022 86.064 253.556 86.1631 253.109C92.5559 227.536 96.8153 208.397 98.3438 193.818C99.8237 179.7 98.7539 169.771 94.5 162.395L94.0781 161.689C89.8377 154.833 82.5586 150.132 71.4541 146.325C60.353 142.52 45.3527 139.584 25.583 136.31H25.584L20.2451 135.393L20.2393 135.392L20.0596 135.355C19.6448 135.25 19.2719 135.02 18.9932 134.694C18.6748 134.323 18.5001 133.851 18.5 133.364C18.5 132.877 18.6747 132.405 18.9932 132.033C19.3086 131.665 19.7449 131.419 20.2256 131.338L25.4893 130.75L25.4883 130.749C71.6027 125.774 95.546 121.318 114.659 106.217C133.752 91.1319 147.243 66.2556 170.232 16.382C170.459 15.9312 170.827 15.5677 171.278 15.3439L171.478 15.256L171.486 15.2521Z" stroke="white"/>
</svg>
